# xmcd CD database file
#
# Track frame offsets:
#	183
#	13683
#	26058
#	38358
#	52758
#	64458
#	77808
#	92133
#	107358
#	119133
#	131808
#	144933
#	159558
#	171633
#	186108
#	199858
#	211158
#	223683
#	237583
#	247008
#	262458
#	278770
#	291108
#	305283
#	320733
#
# Disc length: 4499 seconds
#
# Revision: 0
# Processed by: cddbd v1.5.1PL0 Copyright (c) Steve Scherf et al.
# Submitted via: CDex 1.51
#
DISCID=81119119
DTITLE=Ella Fitzgerald - The Ella Fitzgerald Story
DYEAR=1989
DGENRE=Jazz
TTITLE0=You'll have to swing it
TTITLE1=Big boy blue
TTITLE2=Take another guess
TTITLE3=Dedicated to you
TTITLE4=Cryin' mood
TTITLE5=Just a simple melody
TTITLE6=Holiday in Harlem
TTITLE7=I've got a guy
TTITLE8=A Tisket A Tasket
TTITLE9=Ella
TTITLE10=Gotta pebble in my shoe
TTITLE11=I let a tear fall in the river
TTITLE12=I found my yellow basket
TTITLE13=Undevided
TTITLE14=Chew, chew, chew, chew (your bubble gum)
TTITLE15=Vote for Mr. Rythm
TTITLE16=Everybody step
TTITLE17=It's Foxy
TTITLE18=Lover come back to me
TTITLE19=Angel eyes
TTITLE20=I'm beginnin' to see the light
TTITLE21=My heart belongs to daddy
TTITLE22=Just one of those things
TTITLE23=I can't give you anything but love, baby
TTITLE24=Sophisticated lady
EXTD=YEAR: 1989
EXTT0=
EXTT1=
EXTT2=
EXTT3=
EXTT4=
EXTT5=
EXTT6=
EXTT7=
EXTT8=
EXTT9=
EXTT10=
EXTT11=
EXTT12=
EXTT13=
EXTT14=
EXTT15=
EXTT16=
EXTT17=
EXTT18=
EXTT19=
EXTT20=
EXTT21=
EXTT22=
EXTT23=
EXTT24=
PLAYORDER=
